<?xml version="1.0" encoding="UTF-8" standalone="no"?>
<!-- Svg Vector Icons : http://www.onlinewebfonts.com/icon -->

<svg
   xmlns:dc="http://purl.org/dc/elements/1.1/"
   xmlns:cc="http://creativecommons.org/ns#"
   xmlns:rdf="http://www.w3.org/1999/02/22-rdf-syntax-ns#"
   xmlns:svg="http://www.w3.org/2000/svg"
   xmlns="http://www.w3.org/2000/svg"
   xmlns:xlink="http://www.w3.org/1999/xlink"
   xmlns:sodipodi="http://sodipodi.sourceforge.net/DTD/sodipodi-0.dtd"
   xmlns:inkscape="http://www.inkscape.org/namespaces/inkscape"
   version="1.1"
   x="0px"
   y="0px"
   viewBox="0 0 1000 1000"
   enable-background="new 0 0 1000 1000"
   xml:space="preserve"
   id="svg4696"
   sodipodi:docname="anki-gsse.svg"
   inkscape:version="0.92.5 (2060ec1f9f, 2020-04-08)"
   inkscape:export-filename="C:\Users\camin\Pictures\Photoshop creations\anki-gsse.png"
   inkscape:export-xdpi="96"
   inkscape:export-ydpi="96"><title
   id="title5303">Anki for GSSE Logo</title><defs
   id="defs4700"><linearGradient
     inkscape:collect="always"
     id="linearGradient901"><stop
       style="stop-color:#b3b3b3;stop-opacity:1;"
       offset="0"
       id="stop897" /><stop
       style="stop-color:#b3b3b3;stop-opacity:0;"
       offset="1"
       id="stop899" /></linearGradient><linearGradient
     id="linearGradient4843"><stop
       id="stop880"
       offset="0"
       style="stop-color:white;stop-opacity:0.49411765;" /><stop
       id="stop882"
       offset="1"
       style="stop-color:white;stop-opacity:0.25098041;" /></linearGradient><clipPath
     clipPathUnits="userSpaceOnUse"
     id="clipPath2815"><rect
       style="opacity:1;fill:#d533e4;fill-opacity:0.54098361;stroke:none;stroke-width:1;stroke-miterlimit:4;stroke-dasharray:none;stroke-opacity:1"
       id="rect1913"
       width="23"
       height="30"
       x="5"
       y="1"
       ry="4.6187186"
       rx="4.6187186" /></clipPath><linearGradient
     id="linearGradient4825"><stop
       id="stop4827"
       offset="0"
       style="stop-color:#0084dd;stop-opacity:1" /><stop
       id="stop4829"
       offset="1"
       style="stop-color:white;stop-opacity:1" /></linearGradient><linearGradient
     id="linearGradient4843-4"><stop
       style="stop-color:white;stop-opacity:0.49411765;"
       offset="0"
       id="stop4845" /><stop
       style="stop-color:white;stop-opacity:0.25098041;"
       offset="1"
       id="stop4847" /></linearGradient><linearGradient
     inkscape:collect="always"
     xlink:href="#linearGradient4825"
     id="linearGradient5295"
     gradientUnits="userSpaceOnUse"
     x1="253.74718"
     y1="412.82977"
     x2="188.00023"
     y2="542.33295" /><linearGradient
     inkscape:collect="always"
     xlink:href="#linearGradient901"
     id="linearGradient903"
     x1="42.9049"
     y1="803.99138"
     x2="365.34309"
     y2="803.99138"
     gradientUnits="userSpaceOnUse" /></defs><sodipodi:namedview
   pagecolor="#ffffff"
   bordercolor="#666666"
   borderopacity="1"
   objecttolerance="10"
   gridtolerance="10"
   guidetolerance="10"
   inkscape:pageopacity="0"
   inkscape:pageshadow="2"
   inkscape:window-width="3000"
   inkscape:window-height="1875"
   id="namedview4698"
   showgrid="false"
   inkscape:zoom="0.944"
   inkscape:cx="199.4179"
   inkscape:cy="559.74354"
   inkscape:window-x="-13"
   inkscape:window-y="-13"
   inkscape:window-maximized="1"
   inkscape:current-layer="layer2" />
<metadata
   id="metadata4686"> Svg Vector Icons : http://www.onlinewebfonts.com/icon <rdf:RDF><cc:Work
     rdf:about=""><dc:format>image/svg+xml</dc:format><dc:type
       rdf:resource="http://purl.org/dc/dcmitype/StillImage" /><dc:title>Anki for GSSE Logo</dc:title></cc:Work></rdf:RDF></metadata>

<g
   inkscape:groupmode="layer"
   id="layer3"
   inkscape:label="Anki star"><path
     transform="matrix(4.7719749,0.02795756,-0.02795756,4.7719749,-552.53908,-1637.2588)"
     d="m 294.46869,523.45259 c -9.08043,8.81335 -45.57491,-17.76993 -58.10148,-15.97712 -12.52658,1.79282 -40.09949,37.54547 -51.28749,31.63294 -11.18801,-5.91252 2.81678,-48.83551 -2.75921,-60.19499 -5.57599,-11.35947 -48.09928,-26.53469 -45.93342,-39.00218 2.16586,-12.46749 47.31577,-12.41208 56.39619,-21.22544 9.08043,-8.81335 10.3725,-53.9448 22.89908,-55.73762 12.52657,-1.79281 26.42597,41.16443 37.61397,47.07695 11.188,5.91252 54.50984,-6.80503 60.08583,4.55445 5.57599,11.35947 -30.98363,37.85309 -33.14948,50.32059 -2.16586,12.46749 23.31643,49.73906 14.23601,58.55242 z"
     inkscape:randomized="0"
     inkscape:rounded="0.21"
     inkscape:flatsided="false"
     sodipodi:arg2="1.428641"
     sodipodi:arg1="0.80032243"
     sodipodi:r2="52"
     sodipodi:r1="94"
     sodipodi:cy="456"
     sodipodi:cx="229"
     sodipodi:sides="5"
     id="path4879"
     style="display:inline;fill:url(#linearGradient5295);fill-opacity:1;stroke:#ffffff;stroke-width:15.98369503;stroke-miterlimit:4;stroke-dasharray:none;stroke-opacity:1"
     sodipodi:type="star" /></g><g
   inkscape:groupmode="layer"
   id="layer2"
   inkscape:label="Extra"
   style="" /><path
   sodipodi:type="star"
   style="fill:none;fill-opacity:1;stroke:none;stroke-width:16.23214531;stroke-miterlimit:4;stroke-dasharray:none;stroke-opacity:1"
   id="path4877"
   sodipodi:sides="5"
   sodipodi:cx="229"
   sodipodi:cy="456"
   sodipodi:r1="121.55363"
   sodipodi:r2="60.646587"
   sodipodi:arg1="0.81345017"
   sodipodi:arg2="1.4167054"
   inkscape:flatsided="false"
   inkscape:rounded="0.36"
   inkscape:randomized="0"
   d="m 312.50679,544.32837 c -20.28396,20.1643 -45.83498,-32.08006 -74.19864,-28.40036 -29.32333,3.80421 -41.202,60.28859 -67.50841,46.78663 -25.44547,-13.06007 16.34617,-53.50493 4.08171,-79.34329 -12.67942,-26.71258 -70.06997,-20.55523 -65.35797,-49.74645 4.55778,-28.23586 55.93746,-0.9878 76.72126,-20.63649 21.48703,-20.31349 -2.10362,-72.99241 27.11497,-77.53162 28.26233,-4.39065 18.22508,52.89443 43.33464,66.58923 25.95913,14.15816 68.76986,-24.55656 82.11594,1.82928 12.9093,25.52229 -44.67374,33.67836 -49.93898,61.7909 -5.4434,29.06371 44.60573,57.81562 23.63548,78.66217 z"
   transform="matrix(3.8249475,0.47907876,-0.47907876,3.8249475,-32.341916,-1170.0863)" /><g
   inkscape:groupmode="layer"
   id="layer1"
   inkscape:label="Scalpel"
   style="display:inline"><g
     id="g4545"><path
       sodipodi:nodetypes="ccccscccccccc"
       inkscape:connector-curvature="0"
       id="path866"
       d="M 58.03,926.97 313.55932,671.61017 c 6.08689,-12.02006 19.58904,-0.27215 25.67593,-72.07712 L 891.94915,70.974575 c 0,0 37.07628,-12.711865 52.96611,6.355932 15.88983,19.067797 16.94915,44.491523 16.94915,44.491523 L 886.65254,216.10169 429.02542,658.8983 364.54,680.09 l -25.55695,39.18966 10.59322,67.79661 -130.29661,117.58475 c 0,0 -121.228135,52.03322 -161.24966,22.30898 z"
       style="fill:#ffffff;fill-opacity:1;stroke:none;stroke-width:1px;stroke-linecap:butt;stroke-linejoin:miter;stroke-opacity:1" /><path
       inkscape:connector-curvature="0"
       id="path870"
       d="m 320.79,669.25 43.75,10.84 -25.55695,39.18966 6.88559,51.90678 -132.41525,133.47458 c 0,0 -93.22034,56.14406 -161.016949,24.3644 C -15.36017,897.24576 320.79,669.25 320.79,669.25 Z"
       style="fill:url(#linearGradient903);fill-opacity:1;stroke:#000000;stroke-width:1px;stroke-linecap:butt;stroke-linejoin:miter;stroke-opacity:1" /><g
       transform="matrix(0.1,0,0,-0.1,0,486)"
       id="g4692"><path
         d="m 8889,4456.7 c -60,-21.3 -147.2,-63.9 -193.6,-96.8 -129.7,-91 -5646.3,-5621.2 -5671.5,-5683.1 -9.7,-31 -19.4,-87.1 -19.4,-125.9 0,-67.8 -56.2,-127.8 -1452.2,-1523.9 C 220.1,-4307.1 100,-4431 100,-4489.1 c 0,-123.9 114.2,-184 482.1,-249.8 226.6,-40.7 642.9,-40.7 855.9,0 296.3,58.1 553.8,164.6 801.6,329.2 65.8,42.6 416.3,375.7 807.5,766.8 598.3,594.4 693.2,697.1 693.2,745.5 0,31 -19.4,156.9 -42.6,276.9 l -42.6,218.8 178.1,180.1 180.1,180.1 h 168.5 c 139.4,0 185.9,7.8 265.3,46.5 77.5,38.7 611.9,561.5 2660.5,2604.4 1409.6,1405.6 2600.4,2606.2 2645,2666.2 164.6,220.7 195.6,563.5 71.7,815.2 -73.6,149.1 -197.5,269.2 -348.5,338.9 -147.3,67.7 -424.2,79.3 -586.8,27 z m 429.8,-305.9 c 87.1,-44.5 170.4,-123.9 224.6,-214.9 62,-106.5 67.8,-251.7 13.6,-364 -40.7,-89.1 -549.9,-617.7 -571.2,-596.4 -7.8,9.7 -98.8,203.3 -201.4,431.8 l -187.8,416.3 166.5,158.8 c 123.9,120 189.8,166.5 259.5,187.8 98.7,30.9 213,23.2 296.2,-19.4 z m -778.4,-1024.3 193.6,-426 -185.9,-187.8 c -102.6,-102.6 -191.7,-183.9 -199.4,-180.1 -5.8,3.9 -98.8,195.6 -203.3,426 l -189.8,418.2 189.8,191.7 c 106.5,106.5 193.6,189.8 195.6,187.8 1.9,-1.9 91,-195.5 199.4,-429.8 z m -644.8,-635.1 c 98.8,-222.7 182,-414.4 182,-426 0,-27.1 -362.1,-393.1 -375.7,-379.5 -13.5,13.6 -379.5,828.7 -379.5,844.2 0,23.2 356.3,373.7 373.7,367.9 7.9,-2 98.9,-185.9 199.5,-406.6 z M 7254.7,1846.6 7444.4,1428.4 5878,-138.2 c -865.5,-865.5 -1585.9,-1572.3 -1611,-1580 -63.9,-15.5 -935.3,189.8 -948.8,222.7 -5.8,17.4 700.9,737.7 1856.9,1893.7 1026.3,1026.3 1872.4,1866.6 1878.2,1866.6 5.9,0 96.9,-187.8 201.4,-418.2 z M 3446,-1892.5 l 199.4,-48.4 -164.6,-170.4 c -191.7,-195.6 -185.9,-174.3 -123.9,-497.6 l 42.6,-220.8 -598.3,-600.2 c -331.1,-331.1 -654.5,-640.9 -720.3,-687.4 -383.4,-276.9 -846.2,-377.6 -1407.7,-304 l -92.9,11.6 1293.5,1295.4 c 1063,1061.1 1303.1,1293.5 1334.1,1281.8 21.2,-5.8 127.7,-32.9 238.1,-60 z"
         id="path4688"
         inkscape:connector-curvature="0" /><path
         d="m 2042.1,-3298.2 c -228.5,-228.5 -249.8,-267.2 -197.5,-366 29,-54.2 139.4,-96.8 195.6,-75.5 25.2,9.7 135.5,110.4 247.8,222.7 182,184 201.4,211.1 201.4,275 0,89.1 -77.5,162.7 -168.5,162.7 -50.3,-0.1 -92.9,-33.1 -278.8,-218.9 z"
         id="path4690"
         inkscape:connector-curvature="0" /></g></g></g></svg>